/* XPM */
static char * C:\Users\silio\Coding\42Projects\OngoingProjects\so_long\images\exit_xpm[] = {
"32 32 14 1",
" 	c #FFFFFF",
".	c #000000",
"+	c #19710F",
"@	c #27AB18",
"#	c #1C7B11",
"$	c #26A817",
"%	c #26A717",
"&	c #000200",
"*	c #1C7C11",
"=	c #1C7D11",
"-	c #10460A",
";	c #16610E",
">	c #32DB20",
",	c #24A017",
"                                ",
"            ........            ",
"            ..++++..            ",
"         .....@@@@.....         ",
"      .....@@@....@@@.....      ",
"     .#$$$%&&&....&&&$$$$#.     ",
"     .*@@@@..........@@@@=.     ",
"     .*@................@=.     ",
"     .*@@@@..........@@@@=.     ",
"     .*@@@@..........@@@@=.     ",
"     ......@@@....@@@......     ",
"     .-;@.....@@@@.....@>,.     ",
"     .-;@.....@@@@.....@>,.     ",
"     .-;@@@@........@@@@>,.     ",
"       ....@@@@@@@@@@....       ",
"       ....@@@@@@@@@@....       ",
"        ......@@@@......        ",
"        .;;@........@>>.        ",
"        .;;@........@>>.        ",
"        .;;@@@@@@@@@@>>.        ",
"        .;;@@@@@@@@@@>>.        ",
"        .;;@@@@@@@@@@>>.        ",
"        .;;@@@@@@@@@@>>.        ",
"        .;;@@@@@@@@@@>>.        ",
"        .;;@@@@@@@@@@>>.        ",
"        .;;@@@@@@@@@@>>.        ",
"        .;;@@@@@@@@@@>>.        ",
"        .;;@@@@@@@@@@>>.        ",
"        .;;@@@@@@@@@@>>.        ",
"         .....@@@@.....         ",
"            ..++++..            ",
"            ........            "};
