/* XPM */
static char * C:\Users\silio\Coding\42Projects\OngoingProjects\so_long\images\ground_xpm[] = {
"32 32 2 1",
" 	c #4CAF50",
".	c #8BC34A",
"                                ",
"                                ",
"                                ",
"                                ",
"        ....                    ",
"        ....                    ",
"        ....                    ",
"        ....                    ",
"    ....    ....                ",
"    ....    ....                ",
"    ....    ....                ",
"    ....    ....                ",
"                        ....    ",
"                        ....    ",
"                        ....    ",
"                        ....    ",
"                    ....    ....",
"                    ....    ....",
"                    ....    ....",
"                    ....    ....",
"            ....                ",
"            ....                ",
"            ....                ",
"            ....                ",
"        ....    ....            ",
"        ....    ....            ",
"        ....    ....            ",
"        ....    ....            ",
"                                ",
"                                ",
"                                ",
"                                "};
