/* XPM */
static char * C:\Users\silio\Coding\42Projects\OngoingProjects\so_long\images\mario_xpm[] = {
"32 32 35 1",
" 	c #FFFFFF",
".	c #D82806",
"+	c #D82700",
"@	c #D82602",
"#	c #D82300",
"$	c #D82400",
"%	c #D82100",
"&	c #D82600",
"*	c #D81D00",
"=	c #866F00",
"-	c #877000",
";	c #867000",
">	c #FD9838",
",	c #FD9836",
"'	c #FD9735",
")	c #89710C",
"!	c #887106",
"~	c #FC9838",
"{	c #FD993B",
"]	c #FD983A",
"^	c #FD9839",
"/	c #FC9636",
"(	c #FC9739",
"_	c #887001",
":	c #876F00",
"<	c #866E00",
"[	c #FD993A",
"}	c #887000",
"|	c #887107",
"1	c #D82500",
"2	c #D92500",
"3	c #FC9638",
"4	c #D82800",
"5	c #D82200",
"6	c #D82502",
"          .++++++++++@          ",
"          .++++++++++@          ",
"        #.++++++++++++.....$    ",
"        %&&&&&&&&&&&&&&&###*    ",
"        =------;>>>>;->,        ",
"        =------->>>>;->'        ",
"      )!--~>;-~>>>>>;->>{]^>    ",
"      !--->>;->>>>>>;->>>>>'    ",
"      !--->>;-;;>>>>>>-;>>>>'/  ",
"      !---~>---->>>>>~-;>>>>^(  ",
"      !----->>>>>>>>-_-----:    ",
"      -===;;>>>>>>>>;;;;;;=<    ",
"          [>>>>>>>>>>>>>>^      ",
"          ]>>>>>>>>>>>^^^(      ",
"        -!}--}&+-----_          ",
"        =-----&&------          ",
"      -=------&&----&&:====<    ",
"      !-------&&----&+}----=    ",
"    -!--------&+&&&&++}-----!|  ",
"    =;;;;;----1&++++&&----;;;-  ",
"    ,>>>>>--&2>>&++&>>2&-->>>^  ",
"    '>>>>>_-&&>>&++&>>&&-_>>>3  ",
"    '>>>>>>>&+44++++44+&>>>>>^  ",
"    '>>>>>>>&++++++++++&>>>>>^  ",
"    '>>>>>$&++++++++++++&1>>>^  ",
"    /^^^>>&+++++@@+++++++&^^^3  ",
"        5++++++#  .++++++@      ",
"        5&&&&&#*  $#&&&&&6      ",
"      -=------      =-----=<    ",
"      !-------      =------=    ",
"    -!--------      =-------!|  ",
"    =---------      =---------  "};
