/* XPM */
static char * C:\Users\silio\Coding\42Projects\OngoingProjects\final_long\bonus\images\pr1_xpm[] = {
"32 32 17 1",
" 	c #EFEAEA",
".	c #000000",
"+	c #FE0000",
"@	c #FF0000",
"#	c #BC0C0C",
"$	c #BC0D0D",
"%	c #2D7C31",
"&	c #2D7D32",
"*	c #1A5D20",
"=	c #2E7C31",
"-	c #2D7D31",
";	c #2E7D31",
">	c #1A5E20",
",	c #1B5D20",
"'	c #1B5E20",
")	c #2D7C32",
"!	c #2E7D32",
"                                ",
"         ...        ...         ",
"        .   .      .   .        ",
"        .   .      .   .        ",
"        .    .    .    .        ",
"         .   .    .   .         ",
"          .   .  .   .          ",
"         .+.   ..   .+.         ",
"         .++.      .+ .         ",
"        .@ +@.    .++##.        ",
"        .@+++@....++###.        ",
"        .@++++  +@+####.        ",
"         .++@+  ++#  #.         ",
"         .  +++++##  #.         ",
"          ..+++#$###..          ",
"            ........            ",
"         ..   ....   ..         ",
"        .%%.. .%.. ..&*.        ",
"        .=.-%..%*..-%.*.        ",
"        .%.**;.%*.%**.*.        ",
"        .%*.*&.=>.=,.>*.        ",
"         .,*.>.='.*.*'.         ",
"          ..*.*&>>.'..          ",
"            ...%>...            ",
"         ..   .)*.   ..         ",
"        .%%....!'. ..%'.        ",
"        .-.-&..)'..%=.*.        ",
"        .;.*,..%*.)*'.,.        ",
"        .%*.*-.%*.%*.**.        ",
"         .'*.>.%*.*.,*.         ",
"          ..'.>)**.*..          ",
"            ...%>...            "};
