/* XPM */
static char * C:\Users\silio\Coding\42Projects\OngoingProjects\so_long\images\wall_xpm[] = {
"32 32 8 1",
" 	c #4CAF50",
".	c #616161",
"+	c #9E9E9E",
"@	c #424242",
"#	c #FFFFFF",
"$	c #F44336",
"%	c #8BC34A",
"&	c #000000",
"  ....  ....  ....  ....  ....  ",
"  ....  ....  ....  ....  ....  ",
"..++++..++++..++++..++++..++++..",
"..++++..++++..++++..++++..++++..",
"..++++..++++..++++..++++..++++..",
"..++++..++++..++++..++++..++++..",
"  ....++................++....  ",
"  ....++................++....  ",
"..++++..++++++++++++++++..++++..",
"..++++..++++++++++++++++..++++..",
"..++++..++@@++++++++@@++..++++..",
"..++++..++@@++++++++@@++..++++..",
"  ......++++@@@@@@@@++++......  ",
"  ......++++@@@@@@@@++++......  ",
"..++++..++++##++++##++++..++++..",
"..++++..++++##++++##++++..++++..",
"..++++..++++$$++++$$++++..++++..",
"..++++..++++$$++++$$++++..++++..",
"  ......++++++++++++++++......%%",
"  ......++++++++++++++++......%%",
"..++++..++&&##&&##&&##++..++++..",
"..++++..++&&##&&##&&##++..++++..",
"..++++..++++++++++++++++..++++..",
"..++++..++++++++++++++++..++++..",
"  ....++................++....  ",
"  ....++................++....  ",
"..++++..++++..++++..++++..++++..",
"..++++..++++..++++..++++..++++..",
"..++++..++++..++++..++++..++++..",
"..++++..++++..++++..++++..++++..",
"  ....  ....  ....  ....  ....  ",
"  ....  ....  ....  ....  ....  "};
