/* XPM */
static char * C:\Users\silio\Coding\42Projects\OngoingProjects\so_long\images\5_xpm[] = {
"32 32 2 1",
" 	c #FFFFFF",
".	c #000000",
"                                ",
"                                ",
"                                ",
"                                ",
"                                ",
"                                ",
"    ......................      ",
"    ......................      ",
"    ..                          ",
"    ..                          ",
"    ..                          ",
"    ..                          ",
"    ..                          ",
"    ..                          ",
"    ..                          ",
"    ..                          ",
"    ......................      ",
"    ......................      ",
"                        ..      ",
"                        ..      ",
"                        ..      ",
"                        ..      ",
"                        ..      ",
"                        ..      ",
"                        ..      ",
"    ......................      ",
"    ......................      ",
"                                ",
"                                ",
"                                ",
"                                ",
"                                "};
