/* XPM */
static char * C:\Users\silio\Coding\42Projects\OngoingProjects\almostdone\images\block_xpm[] = {
"32 32 8 1",
" 	c #030303",
".	c #E3872B",
"+	c #503010",
"@	c #FFB12B",
"#	c #5A3F10",
"$	c #0B0904",
"%	c #CE8F23",
"&	c #000000",
"  ............................+ ",
"  ............................+ ",
"..@@@@@@@@@@@@@@@@@@@@@@@@@@@@# ",
"..@@@@@@@@@@@@@@@@@@@@@@@@@@@@# ",
"..@@  @@@@@@@@@@@@@@@@@@@@$ %@# ",
"..@@  @@@@@@@@@@@@@@@@@@@@$ %@# ",
"..@@@@@@@@..........@@@@@@@@@@# ",
"..@@@@@@@@..........@@@@@@@@@@# ",
"..@@@@@@....&&&&&&....@@@@@@@@# ",
"..@@@@@@....&&&&&&....@@@@@@@@# ",
"..@@@@@@....&&@@@@....&&@@@@@@# ",
"..@@@@@@....&&@@@@....&&@@@@@@# ",
"..@@@@@@....&&@@@@....&&@@@@@@# ",
"..@@@@@@....&&@@@@....&&@@@@@@# ",
"..@@@@@@@@&&&&@@......&&@@@@@@# ",
"..@@@@@@@@&&&&@@......&&@@@@@@# ",
"..@@@@@@@@@@@@....&&&&&&@@@@@@# ",
"..@@@@@@@@@@@@....&&&&&&@@@@@@# ",
"..@@@@@@@@@@@@....&&@@@@@@@@@@# ",
"..@@@@@@@@@@@@....&&@@@@@@@@@@# ",
"..@@@@@@@@@@@@@@&&&&@@@@@@@@@@# ",
"..@@@@@@@@@@@@@@&&&&@@@@@@@@@@# ",
"..@@@@@@@@@@@@....@@@@@@@@@@@@# ",
"..@@@@@@@@@@@@....@@@@@@@@@@@@# ",
"..@@@@@@@@@@@@....&&@@@@@@@@@@# ",
"..@@@@@@@@@@@@....&&@@@@@@@@@@# ",
"..@@  @@@@@@@@@@&&&&@@@@@@$ %@# ",
"..@@  @@@@@@@@@@&&&&@@@@@@$ %@# ",
"..@@@@@@@@@@@@@@@@@@@@@@@@@@@@# ",
"..@@@@@@@@@@@@@@@@@@@@@@@@@@@@# ",
"                                ",
"                                "};
