/* XPM */
static char * C:\Users\El Nitsuj\Desktop\test\ground_xpm[] = {
"70 70 6 1",
" 	c #994B4B",
".	c #613639",
"+	c #A76262",
"@	c #AC5C56",
"#	c #744141",
"$	c #B57A6F",
"                     ...+++++++++++++++++++++...                     .",
"                     ...+++++++++++++++++++++...                     .",
"                     ...+++++++++++++++++++++...                     .",
"                     ...+++++++++++++++++++++...                     .",
"                     ...+++++++++++++++++++++...                     .",
"                     ...+++++++++++++++++++++...                     .",
"                     ...+++++++++++++++++++++...                     .",
"                     ...+++++++++++++++++++++...                     .",
"                     ...+++++++++++++++++++++...                     .",
"                     ...+++++++++++++++++++++...                     .",
"                     ...+++++++++++++++++++++...                     .",
"                     ...+++++++++++++++++++++...                     .",
"                     ...+++++++++++++++++++++...                     .",
"                     ...+++++++++++++++++++++...                     .",
"                     ...+++++++++++++++++++++...                     .",
"                     ...+++++++++++++++++++++...                     .",
"                     ...+++++++++++++++++++++...                     .",
"                     ...+++++++++++++++++++++...                     .",
"                     ...........................                     .",
"                     ...........................                     .",
"                     ...........................                     .",
"                  @@@###@@@@@@@@@@@@@@@@@@@@@###@@@@@@@@@@@@@@@@@@@@@#",
"                  @@@###@@@@@@@@@@@@@@@@@@@@@###@@@@@@@@@@@@@@@@@@@@@#",
"                  @@@###@@@@@@@@@@@@@@@@@@@@@###@@@@@@@@@@@@@@@@@@@@@#",
"..................######@@@@@@@@@@@@@@@@@@@@@#########################",
"..................######@@@@@@@@@@@@@@@@@@@@@#########################",
"..................######@@@@@@@@@@@@@@@@@@@@@#########################",
"++++++++++++++++++$$$###@@@@@@@@@@@@@@@@@@@@@###$$$$$$$$$$$$$$$$$$$$$#",
"++++++++++++++++++$$$###@@@@@@@@@@@@@@@@@@@@@###$$$$$$$$$$$$$$$$$$$$$#",
"++++++++++++++++++$$$###@@@@@@@@@@@@@@@@@@@@@###$$$$$$$$$$$$$$$$$$$$$#",
"++++++++++++++++++$$$###@@@@@@@@@@@@@@@@@@@@@###$$$$$$$$$$$$$$$$$$$$$#",
"++++++++++++++++++$$$###@@@@@@@@@@@@@@@@@@@@@###$$$$$$$$$$$$$$$$$$$$$#",
"++++++++++++++++++$$$###@@@@@@@@@@@@@@@@@@@@@###$$$$$$$$$$$$$$$$$$$$$#",
"++++++++++++++++++$$$###@@@@@@@@@@@@@@@@@@@@@###$$$$$$$$$$$$$$$$$$$$$#",
"++++++++++++++++++$$$###@@@@@@@@@@@@@@@@@@@@@###$$$$$$$$$$$$$$$$$$$$$#",
"++++++++++++++++++$$$###@@@@@@@@@@@@@@@@@@@@@###$$$$$$$$$$$$$$$$$$$$$#",
"++++++++++++++++++$$$###@@@@@@@@@@@@@@@@@@@@@###$$$$$$$$$$$$$$$$$$$$$#",
"++++++++++++++++++$$$###@@@@@@@@@@@@@@@@@@@@@###$$$$$$$$$$$$$$$$$$$$$#",
"++++++++++++++++++$$$###@@@@@@@@@@@@@@@@@@@@@###$$$$$$$$$$$$$$$$$$$$$#",
"++++++++++++++++++$$$###@@@@@@@@@@@@@@@@@@@@@###$$$$$$$$$$$$$$$$$$$$$#",
"++++++++++++++++++$$$###@@@@@@@@@@@@@@@@@@@@@###$$$$$$$$$$$$$$$$$$$$$#",
"++++++++++++++++++$$$###@@@@@@@@@@@@@@@@@@@@@###$$$$$$$$$$$$$$$$$$$$$#",
"++++++++++++++++++$$$###@@@@@@@@@@@@@@@@@@@@@###$$$$$$$$$$$$$$$$$$$$$#",
"++++++++++++++++++$$$###@@@@@@@@@@@@@@@@@@@@@###$$$$$$$$$$$$$$$$$$$$$#",
"++++++++++++++++++$$$###@@@@@@@@@@@@@@@@@@@@@###$$$$$$$$$$$$$$$$$$$$$#",
"..................####################################################",
"..................####################################################",
"..................####################################################",
"                  @@@###$$$$$$$$$$$$$$$$$$$$$###@@@@@@@@@@@@@@@@@@@@@#",
"                  @@@###$$$$$$$$$$$$$$$$$$$$$###@@@@@@@@@@@@@@@@@@@@@#",
"                  @@@###$$$$$$$$$$$$$$$$$$$$$###@@@@@@@@@@@@@@@@@@@@@#",
"                  @@@###$$$$$$$$$$$$$$$$$$$$$###@@@@@@@@@@@@@@@@@@@@@#",
"                  @@@###$$$$$$$$$$$$$$$$$$$$$###@@@@@@@@@@@@@@@@@@@@@#",
"                  @@@###$$$$$$$$$$$$$$$$$$$$$###@@@@@@@@@@@@@@@@@@@@@#",
"                  @@@###$$$$$$$$$$$$$$$$$$$$$###@@@@@@@@@@@@@@@@@@@@@#",
"                  @@@###$$$$$$$$$$$$$$$$$$$$$###@@@@@@@@@@@@@@@@@@@@@#",
"                  @@@###$$$$$$$$$$$$$$$$$$$$$###@@@@@@@@@@@@@@@@@@@@@#",
"                  @@@###$$$$$$$$$$$$$$$$$$$$$###@@@@@@@@@@@@@@@@@@@@@#",
"                  @@@###$$$$$$$$$$$$$$$$$$$$$###@@@@@@@@@@@@@@@@@@@@@#",
"                  @@@###$$$$$$$$$$$$$$$$$$$$$###@@@@@@@@@@@@@@@@@@@@@#",
"                  @@@###$$$$$$$$$$$$$$$$$$$$$###@@@@@@@@@@@@@@@@@@@@@#",
"                  @@@###$$$$$$$$$$$$$$$$$$$$$###@@@@@@@@@@@@@@@@@@@@@#",
"                  @@@###$$$$$$$$$$$$$$$$$$$$$###@@@@@@@@@@@@@@@@@@@@@#",
"                  @@@###$$$$$$$$$$$$$$$$$$$$$###@@@@@@@@@@@@@@@@@@@@@#",
"                  @@@###$$$$$$$$$$$$$$$$$$$$$###@@@@@@@@@@@@@@@@@@@@@#",
"                  @@@###$$$$$$$$$$$$$$$$$$$$$###@@@@@@@@@@@@@@@@@@@@@#",
"                  @@@###########################@@@@@@@@@@@@@@@@@@@@@#",
"                  @@@###########################@@@@@@@@@@@@@@@@@@@@@#",
"                  @@@###########################@@@@@@@@@@@@@@@@@@@@@#",
"                  @@@###@@@@@@@@@@@@@@@@@@@@@###@@@@@@@@@@@@@@@@@@@@@#"};
