/* XPM */
static char * C:\Users\silio\Coding\42Projects\OngoingProjects\so_long\images\gumpa_xpm[] = {
"32 32 14 1",
" 	c #FFFFFF",
".	c #E5D4C9",
"+	c #C68642",
"@	c #000000",
"#	c #261606",
"$	c #C68744",
"%	c #FFE0BD",
"&	c #FBDDBA",
"*	c #3B250E",
"=	c #4F4438",
"-	c #F9D7B3",
";	c #14100C",
">	c #342C24",
",	c #E7CAAB",
"           .++++++++            ",
"           .++++++++            ",
"          ++++++++++++          ",
"          ++++++++++++          ",
"        ++++++++++++++++        ",
"        ++++++++++++++++        ",
"      ++++++++++++++++++++      ",
"      ++++++++++++++++++++      ",
"    ++@@@#++++++++++++#@@@++    ",
"    ++@@@#++++++++++++#@@@++    ",
"  +++++$%&@*++++++++*@&%$+++++  ",
"  +++++$%&@*++++++++*@&%$+++++  ",
"  +++++$%&@@@@@@@@@@@@&%$+++++  ",
"  +++++$%&@@@@@@@@@@@@&%$+++++  ",
"+++++++$%&@=%-++++-%=@&%$+++++++",
"+++++++$%&@=%-++++-%=@&%$+++++++",
"+++++++$%%%%%-++++-%%%%%$+++++++",
"+++++++$%%%%%-++++-%%%%%$+++++++",
"++++++++++++++++++++++++++++++++",
"++++++++++++++++++++++++++++++++",
"  +++++$%%%%%%%%%%%%%%%%$+++++  ",
"  +++++$%%%%%%%%%%%%%%%%$+++++  ",
"      %%%%%%%%%%%%%%%%%%%%      ",
"      %%%%%%%%%%%%%%%%%%%%      ",
"      %%%%%%%%%%%%%%%%%%%%      ",
"      %%%%%%%%%%%%%%%%%%%%      ",
"    @@@;%%%%%%%%%%%%%%%%;@@@    ",
"    @@@;%%%%%%%%%%%%%%%%;@@@    ",
"    @@@@@>%%%%%%%%%%%,@@@@@@    ",
"    @@@@@>%%%%%%%%%%%,@@@@@@    ",
"    @@@@@@@=%%%%%%%%=@@@@@@@    ",
"    @@@@@@@=%%%%%%%%=@@@@@@@    "};
