/* XPM */
static char * C:\Users\silio\Coding\42Projects\OngoingProjects\so_long\images\shroom_xpm[] = {
"32 32 17 1",
" 	c #FFFFFF",
".	c #000000",
"+	c #121212",
"@	c #FEFEFE",
"#	c #64B931",
"$	c #010101",
"%	c #64B938",
"&	c #FFFFFD",
"*	c #FEFEFC",
"=	c #65B937",
"-	c #66B83A",
";	c #62BA38",
">	c #63B937",
",	c #64BB35",
"'	c #63B933",
")	c #66B73B",
"!	c #050000",
"                                ",
"                                ",
"                                ",
"                                ",
"                                ",
"                                ",
"                                ",
"                                ",
"             ...+.              ",
"           ...@# $..            ",
"          ..  @# @ ..           ",
"         ..% &###* %..          ",
"         . %%####=-% .          ",
"        ..  ;>   ,'  ..         ",
"        .   )     #   .         ",
"        .   #     #   .         ",
"        .#####   #####.         ",
"        .##.....+$.$##.         ",
"        .!!.  . +  .!!.         ",
"         ..   . +   ..          ",
"          .         .           ",
"          ..       ..           ",
"           .....+...            ",
"                                ",
"                                ",
"                                ",
"                                ",
"                                ",
"                                ",
"                                ",
"                                ",
"                                "};
