/* XPM */
static char * C:\Users\silio\Coding\42Projects\OngoingProjects\so_long\images\shrooom_xpm[] = {
"32 32 9 1",
" 	c #FFFFFF",
".	c #000000",
"+	c #121212",
"@	c #FEFEFE",
"#	c #F01717",
"$	c #010101",
"%	c #FFFFFD",
"&	c #FEFEFC",
"*	c #050000",
"                                ",
"                                ",
"                                ",
"                                ",
"                                ",
"                                ",
"                                ",
"                                ",
"             ...+.              ",
"           ...@# $..            ",
"          ..  @# @ ..           ",
"         ..# %###& #..          ",
"         . ######### .          ",
"        ..  #######  ..         ",
"        .   #######   .         ",
"        .   #######   .         ",
"        .#############.         ",
"        .##.....+$.$##.         ",
"        .**.  . +  .**.         ",
"         ..   . +   ..          ",
"          .         .           ",
"          ..       ..           ",
"           .....+...            ",
"                                ",
"                                ",
"                                ",
"                                ",
"                                ",
"                                ",
"                                ",
"                                ",
"                                "};
